<svg xmlns="http://www.w3.org/2000/svg" width="300" class="lazy-line-painter" data-llp-composed="true" viewBox="0 0 406.4 315.18" style="">
  <defs>
    <linearGradient id="a" x1="36.63" x2="429.11" y1="329.43" y2="75.97" gradientUnits="userSpaceOnUse">
      <stop offset="0" stop-color="#00a19a"></stop>
      <stop offset="1" stop-color="#312783"></stop>
    </linearGradient>
    <linearGradient id="b" x1="20.43" x2="376.38" y1="160.12" y2="160.12" gradientUnits="userSpaceOnUse">
      <stop offset="0" stop-color="#004d49"></stop>
      <stop offset="1" stop-color="#1c174d"></stop>
    </linearGradient>
  </defs>
  <g data-name="Layer 2">
    <path d="M71.5 272.25c-21.24 2.37-27.82-8.18-27.82-17.31a16.54 16.54 0 0 1 16.54-16.54 16.82 16.82 0 0 1 1.89.12v-40.25c-.63 0-1.26-.05-1.89-.05a56.72 56.72 0 1 0 0 113.43C148.44 314 205.51 169.7 205.51 169.7c41.53 55.37 48.75 101.77 48.75 101.77h-9v39.66h69.21v-38.41H303c17.46-199.1 99.9-230.89 99.9-230.89-119-111.61-207.14 56-207.14 56 15.61 5 34 20.67 34 20.67 50.07-97.37 108.4-70.73 108.4-70.73C291.75 94.19 271.08 203 271.08 203c-71.19-154.32-160.75-79-160.75-79l22.51 33.07a50.39 50.39 0 0 1 39-11.94s-7.35 32.15-48.69 85.42c-2.79 3.61-5.5 6.9-8.11 9.93-19.83 23-34.44 30-43.58 31.73" data-llp-delay="0" data-llp-duration="2550" data-llp-id="Asset11-0" style="stroke-width:7px;stroke:url(#a);fill:none;stroke-linecap:round;stroke-linejoin:round" class="mmXSCeYs_0"></path>
    <path d="M137.17 125.79a5.36 5.36 0 1 1-5.36 5.36 5.36 5.36 0 0 1 5.36-5.36ZM261 284.69a5.36 5.36 0 1 0 5.36 5.36 5.35 5.35 0 0 0-5.36-5.36Zm39.58 0a5.36 5.36 0 1 0 5.36 5.36 5.36 5.36 0 0 0-5.36-5.36ZM320 24.83a81.85 81.85 0 0 0-14.11 1.23c-30.79 5.43-56.06 21.27-80.17 60.68l.59.37a5.3 5.3 0 0 0-3.5-.3 5.39 5.39 0 1 0 4 .58c23.9-39 48.86-54.68 79.26-60A80.43 80.43 0 0 1 320 26.13c27.44 0 47.91 13.93 51.78 16.76C339 68.64 314 116 297.36 183.73c-12.14 49.48-15.79 89.62-16.73 104.57-11.58-48.44-26.35-82.48-43.9-110.11-14.14-22.26-30.1-37.5-47.42-45.3a65 65 0 0 0-26.86-5.89c-14.2 0-20.66 1.13-20.8 1.21l.61 1.14c.14-.08 6.34-1.06 20.18-1.06a63.69 63.69 0 0 1 26.37 5.82 79 79 0 0 1 8.44 4.49c-38.14 93-73.59 129.94-96.63 144.56a75.07 75.07 0 0 1-38.16 11A47.86 47.86 0 0 1 45 291.07c-9.86-3.88-16.25-11.15-19-21.61-8-30.72 14.13-42.46 14.35-42.57h0c-.08-.16-.17-.32-.24-.48l.24.48a5.37 5.37 0 0 0 5.76 2.58 5.31 5.31 0 0 0 4.11-4 5.36 5.36 0 1 0-10.14.9l-.29-.57c-.24.11-23.34 12.29-15 44 2.8 10.73 9.64 18.51 19.77 22.5a49.17 49.17 0 0 0 17.93 3.13 76.46 76.46 0 0 0 38.88-11.19c23.19-14.7 58.82-51.8 97.06-145 13.43 8.5 25.94 21.8 37.28 39.66 17.57 27.66 32.34 61.84 43.92 110.49h-13.2v1.29h28.87v-1.28h-13.44c.83-13.79 4.35-54.79 16.76-105.37 16.65-67.87 41.76-115.19 74.61-140.64l.65-.51-.64-.51c-.26-.2-22.42-17.54-53.26-17.54Z" data-llp-delay="2550" data-llp-duration="2550" data-llp-id="Asset11-1" style="stroke-width:5px;stroke:url(#b);fill:none;stroke-linecap:round;stroke-linejoin:round" class="mmXSCeYs_1"></path>
  </g>
<style data-made-with="vivus-instant">.mmXSCeYs_0{stroke-dasharray:2112 2114;stroke-dashoffset:2113;animation:mmXSCeYs_draw 2442ms ease-in-out 0ms forwards;}.mmXSCeYs_1{stroke-dasharray:2211 2213;stroke-dashoffset:2212;animation:mmXSCeYs_draw 2557ms ease-in-out 2442ms forwards;}@keyframes mmXSCeYs_draw{100%{stroke-dashoffset:0;}}@keyframes mmXSCeYs_fade{0%{stroke-opacity:1;}95.65217391304348%{stroke-opacity:1;}100%{stroke-opacity:0;}}</style></svg>
